<svg viewBox="0 0 400 155" fill="none" xmlns="http://www.w3.org/2000/svg" role="img" aria-label="Melani Laurent Shrestha">
  <title>Melani Laurent Shrestha</title>
  <text
    x="50"
    y="110"
    textLength="246"
    lengthAdjust="spacingAndGlyphs"
    font-family="Allura, 'Great Vibes', 'Segoe Script', cursive"
    font-size="106"
    fill="currentColor"
  >Melani</text>
  <circle cx="281" cy="78" r="5.5" fill="currentColor" />
  <path
    d="M 287 100
       L 287 143
       C 278 147, 155 149, 34 141
       C 16 139, 10 131, 20 124
       C 58 114, 168 110, 258 114
       C 278 116, 288 121, 292 129
       C 298 138, 306 146, 314 141
       C 322 135, 318 126, 308 124
       C 300 123, 296 128, 302 134
       C 310 142, 324 140, 330 130
       C 336 120, 328 112, 318 116
       C 312 119, 314 126, 322 128
       C 332 130, 338 124, 334 116
       C 330 108, 320 106, 326 114"
    stroke="currentColor"
    stroke-width="3.8"
    stroke-linecap="round"
    stroke-linejoin="round"
    fill="none"
  />
</svg>
